<?xml version="1.0" standalone="no"?>
<!DOCTYPE svg PUBLIC "-//W3C//DTD SVG 20010904//EN"
 "http://www.w3.org/TR/2001/REC-SVG-20010904/DTD/svg10.dtd">
<svg version="1.0" xmlns="http://www.w3.org/2000/svg"
 width="525.000000pt" height="476.000000pt" viewBox="0 0 525.000000 476.000000"
 preserveAspectRatio="xMidYMid meet">

<g transform="translate(0.000000,476.000000) scale(0.100000,-0.100000)"
fill="#000000" stroke="none">
<path d="M2480 4493 c-161 -15 -349 -51 -460 -87 -199 -64 -455 -193 -599
-303 -35 -26 -78 -58 -96 -70 -56 -38 -205 -184 -287 -283 -231 -276 -402
-617 -463 -922 -9 -46 -20 -99 -25 -118 -5 -19 -11 -96 -14 -170 -4 -107 -3
-123 5 -80 43 243 90 396 181 590 39 83 139 242 202 322 12 14 32 41 46 59 52
69 229 238 320 305 109 81 335 207 462 259 108 43 239 79 388 107 147 26 459
29 618 4 108 -17 257 -54 357 -88 162 -55 545 -283 545 -323 0 -8 -17 -29 -37
-47 -21 -18 -75 -70 -120 -115 -45 -46 -86 -83 -91 -83 -5 0 -52 25 -104 55
-105 61 -182 91 -343 132 -102 25 -125 28 -305 28 -182 0 -202 -2 -300 -28
-183 -49 -281 -93 -432 -191 -171 -112 -300 -256 -427 -481 -23 -39 -79 -176
-97 -234 -23 -74 -44 -234 -44 -330 0 -285 60 -513 190 -717 16 -27 30 -54 30
-62 0 -8 -131 -143 -290 -301 -160 -157 -290 -291 -290 -298 0 -6 48 -62 108
-124 285 -298 641 -507 1032 -605 473 -120 1035 -65 1447 139 371 184 605 386
857 739 25 35 156 266 156 275 0 1 16 37 35 79 110 237 176 572 173 874 -1
170 -2 169 -18 -35 -27 -333 -106 -576 -282 -868 -209 -346 -608 -664 -993
-790 -139 -46 -286 -82 -395 -97 -98 -14 -437 -8 -540 9 -204 34 -473 124
-595 198 -122 74 -256 160 -288 186 l-39 30 124 124 c67 67 131 123 140 123
10 0 48 -19 85 -43 82 -53 124 -72 228 -108 336 -114 699 -90 1022 67 85 41
263 163 271 185 2 5 -69 81 -157 169 l-161 160 -70 -51 c-91 -66 -183 -104
-301 -125 -190 -33 -385 -14 -526 51 -68 31 -209 132 -268 191 -36 36 -98 130
-138 209 -79 156 -104 289 -88 464 14 150 52 253 142 386 117 173 279 290 486
350 74 22 108 26 219 26 143 0 240 -20 357 -75 131 -62 290 -203 350 -308 11
-21 26 -38 32 -38 6 0 217 205 468 456 l457 455 -17 31 c-23 39 -239 253 -296
292 -24 17 -89 63 -143 102 -272 197 -624 326 -993 363 -95 10 -319 12 -401 4z"/>
</g>
</svg>








